<svg width="324" height="82" viewBox="0 0 324 82" fill="none" xmlns="http://www.w3.org/2000/svg">
<g clip-path="url(#clip0_4_74)">
<path d="M76.7184 16.6813C76.7184 16.6813 96.4458 19.4574 100.455 38.8936C100.455 38.8936 101.687 10.5124 121.418 14.8315C121.418 14.8315 117.496 7.94882 107.624 10.242C107.624 10.242 106.388 -0.343212 94.4032 0.00912335C82.4151 0.361459 76.7214 16.6813 76.7214 16.6813H76.7184Z" fill="#3D405B"/>
<path d="M0 82C15.2478 76.2351 23.7306 62.3725 32.4076 49.6732C37.1755 43.1611 42.2106 36.3695 49.5249 30.9144C60.2202 22.0605 79.5804 19.3481 90.2635 31.0389C105.611 46.1438 97.8662 72.3624 78.5242 79.5063C70.0505 82.8383 60.6694 81.5171 52.6267 78.4493C48.754 77.0217 45.106 75.2783 41.4943 73.304C53.267 73.0975 64.4206 75.7096 74.6334 70.5673C83.0463 66.6552 88.5913 55.8664 85.7505 47.3891C81.6169 34.0793 66.9336 32.9859 56.3809 40.552C38.2166 53.4578 25.6699 81.6841 0 82Z" fill="#3D405B"/>
<path d="M150.502 24.5116V36.3331H146.523V6.13855H157.649C160.951 6.13855 163.537 6.98294 165.41 8.66868C167.282 10.3544 168.217 12.5869 168.217 15.3661C168.217 18.2972 167.301 20.5539 165.47 22.1364C163.64 23.7189 161.018 24.5116 157.607 24.5116H150.499H150.502ZM150.502 21.2556H157.652C159.78 21.2556 161.41 20.7544 162.542 19.749C163.674 18.7437 164.241 17.2948 164.241 15.3965C164.241 13.4981 163.674 12.1556 162.542 11.0743C161.41 9.99298 159.856 9.4341 157.88 9.39158H150.502V21.2525V21.2556Z" fill="#3D405B"/>
<path d="M184.36 24.1168H177.274V36.3301H173.273V6.13855H183.262C186.661 6.13855 189.274 6.91308 191.104 8.46214C192.934 10.0112 193.851 12.2649 193.851 15.2233C193.851 17.1035 193.344 18.7406 192.327 20.1378C191.313 21.535 189.899 22.5768 188.09 23.2693L195.177 36.084V36.3331H190.91L184.36 24.1198V24.1168ZM177.274 20.8607H183.386C185.362 20.8607 186.931 20.3474 188.099 19.3238C189.268 18.3002 189.851 16.9273 189.851 15.2112C189.851 13.3432 189.295 11.9096 188.181 10.9103C187.07 9.91401 185.462 9.40676 183.365 9.39462H177.274V20.8607Z" fill="#3D405B"/>
<path d="M222.631 22.2093C222.631 25.1677 222.134 27.7495 221.138 29.9546C220.143 32.1597 218.735 33.8424 216.91 35.0027C215.086 36.163 212.959 36.7431 210.528 36.7431C208.097 36.7431 206.045 36.16 204.209 34.9906C202.373 33.8212 200.946 32.1567 199.93 29.9941C198.916 27.8315 198.394 25.3256 198.367 22.4766V20.2988C198.367 17.3951 198.871 14.8315 199.878 12.6051C200.886 10.3787 202.312 8.67476 204.157 7.49322C206.003 6.31168 208.112 5.71939 210.488 5.71939C212.865 5.71939 215.038 6.30257 216.88 7.47196C218.725 8.64135 220.143 10.3332 221.138 12.5535C222.134 14.7738 222.631 17.3556 222.631 20.2988V22.2063V22.2093ZM218.674 20.2593C218.674 16.6782 217.955 13.9325 216.519 12.0159C215.083 10.1023 213.071 9.14251 210.488 9.14251C207.906 9.14251 205.997 10.0993 204.552 12.0159C203.107 13.9294 202.367 16.5871 202.324 19.989V22.2093C202.324 25.681 203.053 28.4055 204.51 30.3889C205.966 32.3724 207.972 33.3656 210.528 33.3656C213.083 33.3656 215.086 32.4301 216.495 30.556C217.903 28.6819 218.628 25.9969 218.671 22.5009V20.2623L218.674 20.2593Z" fill="#3D405B"/>
<path d="M241.239 6.13855H245.239V27.5186C245.239 30.4072 244.371 32.67 242.638 34.298C240.905 35.9291 238.595 36.7462 235.706 36.7462C232.817 36.7462 230.374 35.9777 228.701 34.4438C227.029 32.91 226.195 30.7595 226.195 27.9955H230.173C230.173 29.7238 230.647 31.0724 231.594 32.0382C232.541 33.0072 233.912 33.4901 235.706 33.4901C237.351 33.4901 238.68 32.9707 239.694 31.935C240.711 30.8992 241.224 29.4474 241.239 27.5794V6.13855Z" fill="#3D405B"/>
<path d="M269.067 22.3764H255.992V33.077H271.182V36.3331H252.016V6.13855H270.976V9.39462H255.995V19.1203H269.07V22.3764H269.067Z" fill="#3D405B"/>
<path d="M298.327 26.7502C297.954 29.9425 296.776 32.4088 294.794 34.1432C292.812 35.8775 290.178 36.7462 286.888 36.7462C283.325 36.7462 280.469 35.4675 278.32 32.91C276.172 30.3525 275.097 26.9294 275.097 22.6437V19.7399C275.097 16.9334 275.598 14.467 276.6 12.3378C277.601 10.2086 279.021 8.57454 280.858 7.43248C282.694 6.29043 284.821 5.72244 287.24 5.72244C290.445 5.72244 293.013 6.61847 294.949 8.40748C296.882 10.1965 298.008 12.675 298.327 15.843H294.327C293.981 13.4313 293.231 11.6818 292.078 10.6005C290.925 9.51916 289.313 8.97851 287.24 8.97851C284.697 8.97851 282.706 9.92009 281.261 11.8002C279.817 13.6804 279.097 16.3593 279.097 19.831V22.7591C279.097 26.0394 279.78 28.6455 281.149 30.5834C282.518 32.5212 284.43 33.4901 286.888 33.4901C289.098 33.4901 290.794 32.989 291.975 31.9866C293.155 30.9843 293.938 29.2378 294.327 26.7502H298.327Z" fill="#3D405B"/>
<path d="M324 9.39462H314.303V36.3331H310.346V9.39462H300.67V6.13855H324.003V9.39462H324Z" fill="#3D405B"/>
<path d="M152.575 70.5278V80.7729H145.303V50.5784H157.343C159.649 50.5784 161.692 51.0036 163.464 51.8541C165.237 52.7045 166.615 53.9134 167.589 55.4837C168.563 57.054 169.049 58.834 169.049 60.8234C169.049 63.7697 167.996 66.1206 165.889 67.8853C163.783 69.647 160.891 70.5278 157.218 70.5278H152.578H152.575ZM152.575 64.9087H157.34C158.748 64.9087 159.822 64.5564 160.563 63.8517C161.3 63.147 161.671 62.1508 161.671 60.866C161.671 59.4566 161.291 58.3297 160.533 57.4854C159.774 56.644 158.736 56.2127 157.425 56.2005H152.575V64.9087Z" fill="#3D405B"/>
<path d="M180.673 80.7729H173.419V50.5784H180.673V80.7729Z" fill="#3D405B"/>
<path d="M185.729 80.7729V50.5784H195.447C198.112 50.5784 200.509 51.1828 202.637 52.3917C204.764 53.6006 206.425 55.3076 207.62 57.5127C208.816 59.7178 209.42 62.1902 209.432 64.9269V66.318C209.432 69.0821 208.85 71.5606 207.681 73.7535C206.513 75.9435 204.871 77.6596 202.749 78.8958C200.628 80.132 198.264 80.7577 195.653 80.7729H185.729ZM193.001 56.2005V75.175H195.529C197.614 75.175 199.217 74.4309 200.336 72.9456C201.456 71.4603 202.015 69.2521 202.015 66.3211V65.015C202.015 62.0991 201.456 59.9001 200.336 58.4209C199.217 56.9417 197.587 56.2036 195.447 56.2036H193.001V56.2005Z" fill="#3D405B"/>
<path d="M237.861 77.04C236.741 78.2853 235.105 79.2876 232.95 80.047C230.796 80.8063 228.434 81.186 225.864 81.186C221.912 81.186 218.756 79.9771 216.395 77.5563C214.033 75.1386 212.768 71.7701 212.604 67.4571L212.583 64.8449C212.583 61.8713 213.108 59.2774 214.158 57.0571C215.208 54.8368 216.71 53.1298 218.665 51.9361C220.619 50.7394 222.88 50.141 225.451 50.141C229.208 50.141 232.128 51.0006 234.207 52.7228C236.286 54.445 237.497 57.0115 237.843 60.4255H230.838C230.589 58.7398 230.049 57.537 229.223 56.8171C228.395 56.0973 227.22 55.7389 225.7 55.7389C223.876 55.7389 222.468 56.5134 221.472 58.0625C220.477 59.6115 219.973 61.8227 219.961 64.6991V66.5246C219.961 69.5377 220.477 71.8005 221.505 73.3162C222.534 74.8288 224.155 75.5881 226.364 75.5881C228.258 75.5881 229.667 75.1659 230.592 74.3215V69.6349H225.536V64.6384H237.864V77.04H237.861Z" fill="#3D405B"/>
<path d="M260.799 67.9552H249.361V75.172H262.872V80.7699H242.089V50.5753H262.912V56.1945H249.361V62.5608H260.799V67.9521V67.9552Z" fill="#3D405B"/>
<path d="M291.386 66.2968C291.386 69.24 290.84 71.8461 289.75 74.115C288.658 76.3839 287.11 78.1274 285.098 79.3514C283.085 80.5755 280.797 81.186 278.229 81.186C275.662 81.186 273.379 80.5968 271.392 79.4122C269.404 78.2306 267.853 76.5388 266.739 74.3428C265.628 72.1437 265.042 69.6227 264.988 66.7737V65.0727C264.988 62.1143 265.531 59.5052 266.614 57.2454C267.698 54.9856 269.252 53.2391 271.276 52.009C273.301 50.7788 275.604 50.1623 278.187 50.1623C280.77 50.1623 283.022 50.7697 285.025 51.9877C287.028 53.2027 288.585 54.937 289.696 57.1816C290.806 59.4293 291.371 62.0019 291.383 64.9057V66.2968H291.386ZM283.99 65.0302C283.99 62.0293 283.489 59.7513 282.487 58.1961C281.486 56.641 280.053 55.8634 278.187 55.8634C274.539 55.8634 272.612 58.6001 272.405 64.0765L272.384 66.2968C272.384 69.2552 272.876 71.5302 273.856 73.1187C274.836 74.7103 276.293 75.5031 278.229 75.5031C280.166 75.5031 281.483 74.7225 282.478 73.1613C283.474 71.6001 283.978 69.3524 283.99 66.4213V65.0302Z" fill="#3D405B"/>
<path d="M320.331 80.7729H313.098L302.406 61.9837V80.7729H295.134V50.5784H302.406L313.077 69.3676V50.5784H320.331V80.7729Z" fill="#3D405B"/>
</g>
<defs>
<clipPath id="clip0_4_74">
<rect width="324" height="82" fill="white"/>
</clipPath>
</defs>
</svg>
